<svg xmlns="http://www.w3.org/2000/svg" viewBox="0 0 64 110" shape-rendering="crispEdges" aria-hidden="true">
  <rect x="24" y="0" width="17" height="1" fill="#3D2B25"/>
  <rect x="23" y="1" width="19" height="1" fill="#3D2B25"/>
  <rect x="21" y="2" width="23" height="1" fill="#3D2B25"/>
  <rect x="20" y="3" width="25" height="1" fill="#3D2B25"/>
  <rect x="19" y="4" width="27" height="1" fill="#3D2B25"/>
  <rect x="18" y="5" width="29" height="1" fill="#3D2B25"/>
  <rect x="17" y="6" width="31" height="1" fill="#3D2B25"/>
  <rect x="16" y="7" width="33" height="2" fill="#3D2B25"/>
  <rect x="15" y="9" width="7" height="1" fill="#3D2B25"/>
  <rect x="22" y="9" width="1" height="1" fill="#F9D5A7"/>
  <rect x="23" y="9" width="27" height="1" fill="#3D2B25"/>
  <rect x="14" y="10" width="9" height="2" fill="#3D2B25"/>
  <rect x="23" y="10" width="1" height="1" fill="#F9D5A7"/>
  <rect x="24" y="10" width="27" height="1" fill="#3D2B25"/>
  <rect x="23" y="11" width="2" height="1" fill="#F9D5A7"/>
  <rect x="25" y="11" width="26" height="1" fill="#3D2B25"/>
  <rect x="13" y="12" width="11" height="1" fill="#3D2B25"/>
  <rect x="24" y="12" width="2" height="1" fill="#F9D5A7"/>
  <rect x="26" y="12" width="26" height="1" fill="#3D2B25"/>
  <rect x="13" y="13" width="7" height="1" fill="#3D2B25"/>
  <rect x="20" y="13" width="11" height="1" fill="#F9D5A7"/>
  <rect x="31" y="13" width="21" height="1" fill="#3D2B25"/>
  <rect x="13" y="14" width="9" height="1" fill="#3D2B25"/>
  <rect x="22" y="14" width="7" height="1" fill="#F9D5A7"/>
  <rect x="29" y="14" width="23" height="1" fill="#3D2B25"/>
  <rect x="12" y="15" width="11" height="2" fill="#3D2B25"/>
  <rect x="23" y="15" width="5" height="1" fill="#F9D5A7"/>
  <rect x="28" y="15" width="25" height="1" fill="#3D2B25"/>
  <rect x="23" y="16" width="1" height="1" fill="#F9D5A7"/>
  <rect x="24" y="16" width="29" height="1" fill="#3D2B25"/>
  <rect x="12" y="17" width="10" height="1" fill="#3D2B25"/>
  <rect x="22" y="17" width="2" height="1" fill="#F9D5A7"/>
  <rect x="24" y="17" width="3" height="1" fill="#3D2B25"/>
  <rect x="27" y="17" width="2" height="1" fill="#F9D5A7"/>
  <rect x="29" y="17" width="24" height="1" fill="#3D2B25"/>
  <rect x="11" y="18" width="11" height="4" fill="#3D2B25"/>
  <rect x="22" y="18" width="1" height="1" fill="#F9D5A7"/>
  <rect x="23" y="18" width="4" height="1" fill="#3D2B25"/>
  <rect x="27" y="18" width="1" height="1" fill="#3D2E2A"/>
  <rect x="28" y="18" width="1" height="1" fill="#F9D5A7"/>
  <rect x="29" y="18" width="8" height="1" fill="#3D2B25"/>
  <rect x="37" y="18" width="1" height="1" fill="#3D2E2A"/>
  <rect x="38" y="18" width="16" height="1" fill="#3D2B25"/>
  <rect x="22" y="19" width="3" height="2" fill="#FFD4C4"/>
  <rect x="25" y="19" width="3" height="1" fill="#3D2E2A"/>
  <rect x="28" y="19" width="1" height="1" fill="#FFFDF8"/>
  <rect x="29" y="19" width="1" height="1" fill="#3D2E2A"/>
  <rect x="30" y="19" width="5" height="1" fill="#3D2B25"/>
  <rect x="35" y="19" width="3" height="1" fill="#3D2E2A"/>
  <rect x="38" y="19" width="1" height="1" fill="#FFFDF8"/>
  <rect x="39" y="19" width="1" height="1" fill="#3D2E2A"/>
  <rect x="40" y="19" width="2" height="2" fill="#FFD4C4"/>
  <rect x="42" y="19" width="12" height="3" fill="#3D2B25"/>
  <rect x="25" y="20" width="2" height="1" fill="#3D2E2A"/>
  <rect x="27" y="20" width="3" height="1" fill="#FFFDF8"/>
  <rect x="30" y="20" width="2" height="1" fill="#FFD4C4"/>
  <rect x="32" y="20" width="1" height="1" fill="#3D2B25"/>
  <rect x="33" y="20" width="2" height="1" fill="#FFD4C4"/>
  <rect x="35" y="20" width="2" height="1" fill="#3D2E2A"/>
  <rect x="37" y="20" width="3" height="1" fill="#FFFDF8"/>
  <rect x="22" y="21" width="2" height="1" fill="#FFD4C4"/>
  <rect x="24" y="21" width="4" height="1" fill="#3D2E2A"/>
  <rect x="28" y="21" width="1" height="1" fill="#FFFDF8"/>
  <rect x="29" y="21" width="2" height="1" fill="#3D2E2A"/>
  <rect x="31" y="21" width="3" height="1" fill="#FFD4C4"/>
  <rect x="34" y="21" width="4" height="1" fill="#3D2E2A"/>
  <rect x="38" y="21" width="1" height="1" fill="#FFFDF8"/>
  <rect x="39" y="21" width="2" height="1" fill="#3D2E2A"/>
  <rect x="41" y="21" width="1" height="1" fill="#FFD4C4"/>
  <rect x="11" y="22" width="7" height="1" fill="#3D2B25"/>
  <rect x="18" y="22" width="1" height="1" fill="#FFD4C4"/>
  <rect x="19" y="22" width="3" height="1" fill="#3D2B25"/>
  <rect x="22" y="22" width="3" height="2" fill="#FFD4C4"/>
  <rect x="25" y="22" width="5" height="2" fill="#3D2E2A"/>
  <rect x="30" y="22" width="5" height="2" fill="#FFD4C4"/>
  <rect x="35" y="22" width="5" height="2" fill="#3D2E2A"/>
  <rect x="40" y="22" width="2" height="2" fill="#FFD4C4"/>
  <rect x="42" y="22" width="4" height="1" fill="#3D2B25"/>
  <rect x="46" y="22" width="1" height="1" fill="#FFD4C4"/>
  <rect x="47" y="22" width="7" height="1" fill="#3D2B25"/>
  <rect x="10" y="23" width="7" height="1" fill="#3D2B25"/>
  <rect x="17" y="23" width="3" height="1" fill="#FFD4C4"/>
  <rect x="20" y="23" width="2" height="1" fill="#3D2B25"/>
  <rect x="42" y="23" width="3" height="1" fill="#3D2B25"/>
  <rect x="45" y="23" width="3" height="1" fill="#FFD4C4"/>
  <rect x="48" y="23" width="7" height="1" fill="#3D2B25"/>
  <rect x="10" y="24" width="6" height="1" fill="#3D2B25"/>
  <rect x="16" y="24" width="7" height="1" fill="#FFD4C4"/>
  <rect x="23" y="24" width="1" height="1" fill="#F4BFBF"/>
  <rect x="24" y="24" width="3" height="1" fill="#FFD4C4"/>
  <rect x="27" y="24" width="1" height="1" fill="#3D2E2A"/>
  <rect x="28" y="24" width="9" height="1" fill="#FFD4C4"/>
  <rect x="37" y="24" width="1" height="1" fill="#3D2E2A"/>
  <rect x="38" y="24" width="3" height="1" fill="#FFD4C4"/>
  <rect x="41" y="24" width="1" height="1" fill="#F4BFBF"/>
  <rect x="42" y="24" width="7" height="1" fill="#FFD4C4"/>
  <rect x="49" y="24" width="6" height="1" fill="#3D2B25"/>
  <rect x="9" y="25" width="8" height="2" fill="#3D2B25"/>
  <rect x="17" y="25" width="4" height="1" fill="#FFD4C4"/>
  <rect x="21" y="25" width="5" height="1" fill="#F4BFBF"/>
  <rect x="26" y="25" width="13" height="1" fill="#FFD4C4"/>
  <rect x="39" y="25" width="5" height="1" fill="#F4BFBF"/>
  <rect x="44" y="25" width="4" height="1" fill="#FFD4C4"/>
  <rect x="48" y="25" width="8" height="2" fill="#3D2B25"/>
  <rect x="17" y="26" width="1" height="1" fill="#E8C07A"/>
  <rect x="18" y="26" width="1" height="1" fill="#FFD4C4"/>
  <rect x="19" y="26" width="1" height="2" fill="#3D2B25"/>
  <rect x="20" y="26" width="7" height="1" fill="#F4BFBF"/>
  <rect x="27" y="26" width="11" height="1" fill="#FFD4C4"/>
  <rect x="38" y="26" width="7" height="1" fill="#F4BFBF"/>
  <rect x="45" y="26" width="1" height="2" fill="#3D2B25"/>
  <rect x="46" y="26" width="1" height="1" fill="#FFD4C4"/>
  <rect x="47" y="26" width="1" height="1" fill="#E8C07A"/>
  <rect x="9" y="27" width="7" height="1" fill="#3D2B25"/>
  <rect x="16" y="27" width="3" height="1" fill="#E8C07A"/>
  <rect x="20" y="27" width="1" height="1" fill="#FFD4C4"/>
  <rect x="21" y="27" width="5" height="1" fill="#F4BFBF"/>
  <rect x="26" y="27" width="13" height="1" fill="#FFD4C4"/>
  <rect x="39" y="27" width="5" height="1" fill="#F4BFBF"/>
  <rect x="44" y="27" width="1" height="1" fill="#FFD4C4"/>
  <rect x="46" y="27" width="3" height="1" fill="#E8C07A"/>
  <rect x="49" y="27" width="7" height="1" fill="#3D2B25"/>
  <rect x="8" y="28" width="7" height="1" fill="#3D2B25"/>
  <rect x="15" y="28" width="5" height="1" fill="#E8C07A"/>
  <rect x="20" y="28" width="1" height="1" fill="#3D2B25"/>
  <rect x="21" y="28" width="2" height="1" fill="#FFD4C4"/>
  <rect x="23" y="28" width="1" height="1" fill="#F4BFBF"/>
  <rect x="24" y="28" width="17" height="1" fill="#FFD4C4"/>
  <rect x="41" y="28" width="1" height="1" fill="#F4BFBF"/>
  <rect x="42" y="28" width="2" height="1" fill="#FFD4C4"/>
  <rect x="44" y="28" width="1" height="1" fill="#3D2B25"/>
  <rect x="45" y="28" width="5" height="1" fill="#E8C07A"/>
  <rect x="50" y="28" width="7" height="1" fill="#3D2B25"/>
  <rect x="8" y="29" width="8" height="1" fill="#3D2B25"/>
  <rect x="16" y="29" width="3" height="1" fill="#E8C07A"/>
  <rect x="19" y="29" width="2" height="1" fill="#3D2B25"/>
  <rect x="21" y="29" width="9" height="1" fill="#FFD4C4"/>
  <rect x="30" y="29" width="4" height="1" fill="#D46A6A"/>
  <rect x="34" y="29" width="10" height="1" fill="#FFD4C4"/>
  <rect x="44" y="29" width="2" height="1" fill="#3D2B25"/>
  <rect x="46" y="29" width="3" height="1" fill="#E8C07A"/>
  <rect x="49" y="29" width="8" height="1" fill="#3D2B25"/>
  <rect x="8" y="30" width="9" height="1" fill="#3D2B25"/>
  <rect x="17" y="30" width="1" height="1" fill="#E8C07A"/>
  <rect x="18" y="30" width="4" height="1" fill="#3D2B25"/>
  <rect x="22" y="30" width="7" height="1" fill="#FFD4C4"/>
  <rect x="29" y="30" width="6" height="1" fill="#D46A6A"/>
  <rect x="35" y="30" width="8" height="1" fill="#FFD4C4"/>
  <rect x="43" y="30" width="4" height="1" fill="#3D2B25"/>
  <rect x="47" y="30" width="1" height="1" fill="#E8C07A"/>
  <rect x="48" y="30" width="9" height="1" fill="#3D2B25"/>
  <rect x="8" y="31" width="15" height="1" fill="#3D2B25"/>
  <rect x="23" y="31" width="19" height="2" fill="#FFD4C4"/>
  <rect x="42" y="31" width="15" height="1" fill="#3D2B25"/>
  <rect x="7" y="32" width="16" height="1" fill="#3D2B25"/>
  <rect x="42" y="32" width="16" height="1" fill="#3D2B25"/>
  <rect x="7" y="33" width="17" height="1" fill="#3D2B25"/>
  <rect x="24" y="33" width="17" height="1" fill="#FFD4C4"/>
  <rect x="41" y="33" width="17" height="1" fill="#3D2B25"/>
  <rect x="7" y="34" width="19" height="1" fill="#3D2B25"/>
  <rect x="26" y="34" width="13" height="1" fill="#FFD4C4"/>
  <rect x="39" y="34" width="19" height="1" fill="#3D2B25"/>
  <rect x="7" y="35" width="21" height="1" fill="#3D2B25"/>
  <rect x="28" y="35" width="9" height="1" fill="#FFD4C4"/>
  <rect x="37" y="35" width="21" height="1" fill="#3D2B25"/>
  <rect x="7" y="36" width="22" height="3" fill="#3D2B25"/>
  <rect x="29" y="36" width="6" height="4" fill="#FFD4C4"/>
  <rect x="35" y="36" width="23" height="3" fill="#3D2B25"/>
  <rect x="7" y="39" width="20" height="1" fill="#3D2B25"/>
  <rect x="27" y="39" width="1" height="1" fill="#E8C07A"/>
  <rect x="28" y="39" width="1" height="1" fill="#3D2B25"/>
  <rect x="35" y="39" width="1" height="1" fill="#3D2B25"/>
  <rect x="36" y="39" width="1" height="1" fill="#E8C07A"/>
  <rect x="37" y="39" width="21" height="1" fill="#3D2B25"/>
  <rect x="7" y="40" width="22" height="1" fill="#3D2B25"/>
  <rect x="29" y="40" width="1" height="1" fill="#E8C07A"/>
  <rect x="30" y="40" width="4" height="1" fill="#FFD4C4"/>
  <rect x="34" y="40" width="1" height="1" fill="#E8C07A"/>
  <rect x="35" y="40" width="23" height="1" fill="#3D2B25"/>
  <rect x="7" y="41" width="24" height="1" fill="#3D2B25"/>
  <rect x="31" y="41" width="2" height="1" fill="#E8C07A"/>
  <rect x="33" y="41" width="25" height="1" fill="#3D2B25"/>
  <rect x="6" y="42" width="25" height="1" fill="#3D2B25"/>
  <rect x="31" y="42" width="2" height="1" fill="#F4BFBF"/>
  <rect x="33" y="42" width="26" height="1" fill="#3D2B25"/>
  <rect x="7" y="43" width="11" height="3" fill="#3D2B25"/>
  <rect x="18" y="43" width="10" height="3" fill="#FFFDF8"/>
  <rect x="28" y="43" width="8" height="3" fill="#F2F0EB"/>
  <rect x="36" y="43" width="10" height="3" fill="#FFFDF8"/>
  <rect x="46" y="43" width="12" height="3" fill="#3D2B25"/>
  <rect x="7" y="46" width="7" height="7" fill="#3D2B25"/>
  <rect x="14" y="46" width="36" height="3" fill="#FFFDF8"/>
  <rect x="50" y="46" width="8" height="7" fill="#3D2B25"/>
  <rect x="14" y="49" width="24" height="1" fill="#FFFDF8"/>
  <rect x="38" y="49" width="3" height="1" fill="#AED9F1"/>
  <rect x="41" y="49" width="9" height="1" fill="#FFFDF8"/>
  <rect x="14" y="50" width="23" height="4" fill="#FFFDF8"/>
  <rect x="37" y="50" width="5" height="2" fill="#AED9F1"/>
  <rect x="42" y="50" width="8" height="4" fill="#FFFDF8"/>
  <rect x="37" y="52" width="2" height="1" fill="#AED9F1"/>
  <rect x="39" y="52" width="1" height="1" fill="#FFFDF8"/>
  <rect x="40" y="52" width="2" height="1" fill="#AED9F1"/>
  <rect x="8" y="53" width="6" height="4" fill="#3D2B25"/>
  <rect x="37" y="53" width="5" height="1" fill="#AED9F1"/>
  <rect x="50" y="53" width="7" height="4" fill="#3D2B25"/>
  <rect x="14" y="54" width="36" height="8" fill="#FFFDF8"/>
  <rect x="9" y="57" width="5" height="3" fill="#3D2B25"/>
  <rect x="50" y="57" width="6" height="3" fill="#3D2B25"/>
  <rect x="10" y="60" width="4" height="2" fill="#3D2B25"/>
  <rect x="50" y="60" width="5" height="2" fill="#3D2B25"/>
  <rect x="11" y="62" width="2" height="1" fill="#3D2B25"/>
  <rect x="13" y="62" width="38" height="2" fill="#F2F0EB"/>
  <rect x="51" y="62" width="3" height="1" fill="#3D2B25"/>
  <rect x="12" y="63" width="1" height="1" fill="#3D2B25"/>
  <rect x="51" y="63" width="2" height="1" fill="#3D2B25"/>
  <rect x="13" y="64" width="2" height="1" fill="#F2F0EB"/>
  <rect x="15" y="64" width="1" height="1" fill="#FFD4C4"/>
  <rect x="16" y="64" width="33" height="1" fill="#F2F0EB"/>
  <rect x="49" y="64" width="1" height="1" fill="#FFD4C4"/>
  <rect x="50" y="64" width="1" height="1" fill="#F2F0EB"/>
  <rect x="51" y="64" width="1" height="1" fill="#3D2B25"/>
  <rect x="13" y="65" width="5" height="2" fill="#FFD4C4"/>
  <rect x="18" y="65" width="1" height="2" fill="#3D2B25"/>
  <rect x="19" y="65" width="1" height="3" fill="#2F4A6E"/>
  <rect x="20" y="65" width="24" height="1" fill="#22385A"/>
  <rect x="44" y="65" width="1" height="3" fill="#2F4A6E"/>
  <rect x="45" y="65" width="2" height="2" fill="#3D2B25"/>
  <rect x="47" y="65" width="5" height="2" fill="#FFD4C4"/>
  <rect x="20" y="66" width="11" height="2" fill="#22385A"/>
  <rect x="31" y="66" width="2" height="2" fill="#FFFDF8"/>
  <rect x="33" y="66" width="11" height="2" fill="#22385A"/>
  <rect x="12" y="67" width="7" height="1" fill="#FFD4C4"/>
  <rect x="45" y="67" width="1" height="1" fill="#3D2B25"/>
  <rect x="46" y="67" width="7" height="1" fill="#FFD4C4"/>
  <rect x="13" y="68" width="5" height="2" fill="#FFD4C4"/>
  <rect x="18" y="68" width="1" height="2" fill="#3D2B25"/>
  <rect x="19" y="68" width="26" height="2" fill="#2F4A6E"/>
  <rect x="45" y="68" width="2" height="2" fill="#3D2B25"/>
  <rect x="47" y="68" width="5" height="2" fill="#FFD4C4"/>
  <rect x="14" y="70" width="1" height="1" fill="#3D2B25"/>
  <rect x="15" y="70" width="1" height="1" fill="#FFD4C4"/>
  <rect x="16" y="70" width="3" height="1" fill="#3D2B25"/>
  <rect x="19" y="70" width="4" height="24" fill="#2F4A6E"/>
  <rect x="23" y="70" width="1" height="24" fill="#22385A"/>
  <rect x="24" y="70" width="16" height="24" fill="#2F4A6E"/>
  <rect x="40" y="70" width="1" height="24" fill="#22385A"/>
  <rect x="41" y="70" width="4" height="24" fill="#2F4A6E"/>
  <rect x="45" y="70" width="4" height="1" fill="#3D2B25"/>
  <rect x="49" y="70" width="1" height="1" fill="#FFD4C4"/>
  <rect x="50" y="70" width="1" height="1" fill="#3D2B25"/>
  <rect x="14" y="71" width="5" height="1" fill="#3D2B25"/>
  <rect x="45" y="71" width="6" height="1" fill="#3D2B25"/>
  <rect x="15" y="72" width="4" height="2" fill="#3D2B25"/>
  <rect x="45" y="72" width="5" height="2" fill="#3D2B25"/>
  <rect x="16" y="74" width="3" height="1" fill="#3D2B25"/>
  <rect x="45" y="74" width="4" height="1" fill="#3D2B25"/>
  <rect x="17" y="75" width="2" height="1" fill="#3D2B25"/>
  <rect x="45" y="75" width="3" height="1" fill="#3D2B25"/>
  <rect x="18" y="76" width="1" height="1" fill="#3D2B25"/>
  <rect x="46" y="76" width="1" height="1" fill="#3D2B25"/>
  <rect x="19" y="94" width="26" height="1" fill="#2F4A6E"/>
  <rect x="19" y="95" width="11" height="2" fill="#F2F0EB"/>
  <rect x="30" y="95" width="4" height="2" fill="#2F4A6E"/>
  <rect x="34" y="95" width="11" height="2" fill="#F2F0EB"/>
  <rect x="19" y="97" width="26" height="1" fill="#2F4A6E"/>
  <rect x="16" y="98" width="3" height="1" fill="#FFFFFF"/>
  <rect x="19" y="98" width="2" height="1" fill="#3D3D3D"/>
  <rect x="21" y="98" width="1" height="1" fill="#FFFFFF"/>
  <rect x="22" y="98" width="2" height="1" fill="#3D3D3D"/>
  <rect x="24" y="98" width="1" height="1" fill="#FFFFFF"/>
  <rect x="25" y="98" width="2" height="1" fill="#3D3D3D"/>
  <rect x="27" y="98" width="3" height="1" fill="#FFFFFF"/>
  <rect x="30" y="98" width="4" height="1" fill="#2F4A6E"/>
  <rect x="34" y="98" width="3" height="1" fill="#FFFFFF"/>
  <rect x="37" y="98" width="2" height="1" fill="#3D3D3D"/>
  <rect x="39" y="98" width="1" height="1" fill="#FFFFFF"/>
  <rect x="40" y="98" width="2" height="1" fill="#3D3D3D"/>
  <rect x="42" y="98" width="1" height="1" fill="#FFFFFF"/>
  <rect x="43" y="98" width="2" height="1" fill="#3D3D3D"/>
  <rect x="45" y="98" width="3" height="1" fill="#FFFFFF"/>
  <rect x="16" y="99" width="2" height="1" fill="#FFFFFF"/>
  <rect x="18" y="99" width="10" height="1" fill="#3D3D3D"/>
  <rect x="28" y="99" width="2" height="1" fill="#FFFFFF"/>
  <rect x="34" y="99" width="2" height="1" fill="#FFFFFF"/>
  <rect x="36" y="99" width="10" height="1" fill="#3D3D3D"/>
  <rect x="46" y="99" width="2" height="1" fill="#FFFFFF"/>
  <rect x="16" y="100" width="14" height="2" fill="#FFFFFF"/>
  <rect x="34" y="100" width="14" height="2" fill="#FFFFFF"/>
  <rect x="16" y="102" width="15" height="3" fill="#3D3D3D"/>
  <rect x="33" y="102" width="15" height="3" fill="#3D3D3D"/>
</svg>